<svg xmlns="http://www.w3.org/2000/svg" width="800" height="560" viewBox="0 0 800 560" role="img" aria-label="Abstract illustration representing learning, AI and accessibility">
  <defs>
    <linearGradient id="g" x1="0" y1="0" x2="1" y2="1">
      <stop offset="0" stop-color="#0ea5e9" stop-opacity="0.95"/>
      <stop offset="1" stop-color="#1d4ed8" stop-opacity="0.95"/>
    </linearGradient>
    <filter id="s" x="-20%" y="-20%" width="140%" height="140%">
      <feDropShadow dx="0" dy="18" stdDeviation="18" flood-color="#111827" flood-opacity="0.18"/>
    </filter>
  </defs>

  <rect width="800" height="560" rx="28" fill="#f6f7f9"/>
  <g filter="url(#s)">
    <rect x="80" y="90" width="420" height="310" rx="22" fill="#ffffff"/>
    <rect x="110" y="130" width="260" height="18" rx="9" fill="#e5e7eb"/>
    <rect x="110" y="165" width="330" height="14" rx="7" fill="#e5e7eb"/>
    <rect x="110" y="195" width="300" height="14" rx="7" fill="#e5e7eb"/>
    <rect x="110" y="225" width="210" height="14" rx="7" fill="#e5e7eb"/>

    <rect x="110" y="270" width="140" height="42" rx="14" fill="url(#g)"/>
    <rect x="260" y="270" width="160" height="42" rx="14" fill="#f6f7f9" stroke="#e5e7eb"/>

    <circle cx="470" cy="150" r="44" fill="#f6f7f9" stroke="#e5e7eb"/>
    <path d="M455 150c0-9 7-16 16-16s16 7 16 16-7 16-16 16-16-7-16-16Z" fill="none" stroke="#1d4ed8" stroke-width="6"/>
    <path d="M470 118v10M470 172v10M438 150h10M492 150h10" stroke="#0ea5e9" stroke-width="6" stroke-linecap="round"/>
  </g>

  <g filter="url(#s)">
    <rect x="530" y="170" width="190" height="230" rx="22" fill="#ffffff"/>
    <rect x="560" y="205" width="130" height="14" rx="7" fill="#e5e7eb"/>
    <rect x="560" y="233" width="110" height="14" rx="7" fill="#e5e7eb"/>
    <rect x="560" y="276" width="160" height="90" rx="18" fill="#f6f7f9" stroke="#e5e7eb"/>
    <path d="M590 318c22-44 48-44 70 0" fill="none" stroke="url(#g)" stroke-width="6" stroke-linecap="round"/>
    <circle cx="590" cy="318" r="8" fill="#0ea5e9"/>
    <circle cx="660" cy="318" r="8" fill="#1d4ed8"/>
  </g>

  <g opacity="0.85">
    <circle cx="140" cy="445" r="10" fill="#0ea5e9"/>
    <circle cx="180" cy="465" r="6" fill="#1d4ed8"/>
    <circle cx="220" cy="435" r="7" fill="#0ea5e9"/>
    <circle cx="260" cy="470" r="9" fill="#1d4ed8"/>
  </g>
</svg>
